<svg width="40.568176" height="46.363647" viewBox="0 0 40.5682 46.3636" fill="none" xmlns="http://www.w3.org/2000/svg" xmlns:xlink="http://www.w3.org/1999/xlink">
	<desc>
			Created with Pixso.
	</desc>
	<defs/>
	<path id="Vector" d="M38.4322 19.4372L6.55705 0.594238C3.96719 -0.934998 0 0.549011 0 4.33551L0 42.0132C0 45.4085 3.68466 47.4539 6.55705 45.7526L38.4322 26.9196C41.2756 25.241 41.2847 21.1122 38.4322 19.4372ZM29.1486 25.6702L10.1674 36.8839C8.24046 38.0293 5.79549 36.6331 5.79549 34.3895L5.79549 11.9529C5.79549 9.70923 8.24046 8.31665 10.1674 9.45935L29.1486 20.6821C29.582 20.9384 29.9412 21.3032 30.1907 21.7405C30.4402 22.1779 30.5714 22.6727 30.5714 23.1761C30.5714 23.6796 30.4402 24.1744 30.1907 24.6118C29.9412 25.0491 29.582 25.4139 29.1486 25.6702Z" fill="#FFFFFF" fill-opacity="0.500000" fill-rule="nonzero"/>
	<path id="Vector" d="M10.1674 9.46112L29.1485 20.6821C29.5819 20.9384 29.9411 21.3032 30.1906 21.7405C30.4401 22.1778 30.5714 22.6726 30.5714 23.1761C30.5714 23.6796 30.4401 24.1744 30.1906 24.6118C29.9411 25.0491 29.5819 25.4138 29.1485 25.6701L10.1674 36.8839C8.24039 38.0292 5.79541 36.6331 5.79541 34.3894L5.79541 11.9528C5.79541 9.711 8.24039 8.31842 10.1674 9.46112Z" fill="#FFFFFF" fill-opacity="1.000000" fill-rule="nonzero"/>
</svg>
